<?xml version="1.0" encoding="UTF-8" standalone="no"?>
<!DOCTYPE svg PUBLIC "-//W3C//DTD SVG 20010904//EN"
              "http://www.w3.org/TR/2001/REC-SVG-20010904/DTD/svg10.dtd">

<svg xmlns="http://www.w3.org/2000/svg"
     width="2.34333in" height="0.83in"
     viewBox="0 0 703 249">
  <path id="Selection #2"
        fill="white" stroke="black" stroke-width="6"
        d="M 131.00,129.00
           C 131.00,129.00 127.00,129.00 127.00,129.00
             125.06,128.99 121.97,129.08 120.23,128.26
             116.27,126.42 116.53,121.21 119.31,118.42
             126.09,111.60 143.07,114.56 151.00,107.86
             165.48,95.61 182.57,76.74 194.75,62.00
             199.45,56.31 209.77,41.46 216.00,39.01
             225.57,35.25 228.15,44.75 227.99,52.00
             227.99,52.00 224.00,97.00 224.00,97.00
             229.51,95.44 240.51,94.87 238.53,103.98
             237.04,110.80 226.65,111.25 221.00,112.00
             221.00,112.00 214.00,153.00 214.00,153.00
             219.37,151.69 237.90,149.81 233.26,160.81
             231.16,165.79 223.51,165.68 219.00,166.16
             199.25,168.29 196.29,171.03 179.00,175.96
             175.27,177.02 166.37,178.66 165.64,172.94
             164.19,161.53 188.00,160.95 192.07,155.58
             193.70,153.42 194.77,145.99 195.42,143.00
             195.42,143.00 201.00,116.00 201.00,116.00
             201.00,116.00 173.00,120.42 173.00,120.42
             173.00,120.42 159.00,123.93 159.00,123.93
             159.00,123.93 135.00,147.00 135.00,147.00
             138.78,147.00 151.15,146.57 153.94,147.74
             159.55,150.08 158.46,156.87 152.96,159.11
             150.19,160.23 135.85,160.82 132.00,161.09
             121.19,161.83 110.54,163.94 100.00,166.35
             94.86,167.53 86.49,169.84 82.74,164.77
             81.72,163.39 81.25,161.72 81.54,160.01
             82.94,151.65 100.65,152.27 107.00,149.49
             110.69,147.87 114.03,143.86 117.00,141.09
             117.00,141.09 131.00,129.00 131.00,129.00 Z
           M 401.00,78.00
           C 395.90,80.78 388.37,83.37 386.89,75.00
             386.31,71.68 387.42,69.24 390.14,67.35
             393.91,64.73 409.28,59.55 414.00,58.85
             417.75,58.29 420.86,58.77 423.15,62.13
             427.22,68.13 420.76,79.11 418.14,85.00
             418.14,85.00 396.31,129.00 396.31,129.00
             396.31,129.00 387.00,147.00 387.00,147.00
             395.92,146.93 401.37,144.16 405.00,154.00
             405.00,154.00 413.61,149.50 413.61,149.50
             413.61,149.50 419.75,138.00 419.75,138.00
             419.75,138.00 432.00,111.00 432.00,111.00
             427.29,112.63 418.31,117.14 417.15,108.98
             416.83,106.73 417.18,104.17 418.60,102.33
             421.46,98.60 436.11,93.08 441.00,91.90
             445.05,90.92 449.43,90.47 452.26,94.23
             455.80,98.91 452.83,105.37 450.85,110.00
             450.85,110.00 435.00,146.00 435.00,146.00
             440.53,145.55 448.68,143.05 450.11,151.02
             450.74,154.55 449.48,157.59 445.94,158.72
             440.28,160.53 433.47,158.82 421.00,163.08
             416.07,164.76 405.81,169.93 401.11,168.68
             397.22,167.65 397.20,164.33 397.00,161.00
             388.67,161.02 379.90,162.38 372.00,165.08
             368.14,166.40 358.36,170.63 355.00,170.76
             348.52,171.01 347.91,166.01 349.00,161.00
             336.16,161.00 329.97,162.52 318.00,167.20
             314.57,168.54 307.96,171.47 304.51,168.98
             300.68,166.20 303.33,160.20 306.22,157.85
             310.12,154.67 316.91,153.70 320.61,149.78
             322.95,147.29 325.54,141.27 327.31,138.00
             327.31,138.00 341.00,112.00 341.00,112.00
             336.09,113.97 327.73,118.87 325.21,110.96
             324.98,109.41 325.04,107.60 325.21,106.00
             322.43,106.97 319.31,107.79 317.18,109.51
             312.92,112.95 305.62,129.26 302.75,135.00
             293.23,154.05 280.21,183.37 261.00,193.68
             253.28,197.82 246.62,199.04 238.00,199.00
             238.00,199.00 221.18,197.35 221.18,197.35
             217.03,198.94 213.83,209.07 207.00,210.53
             197.99,212.45 200.39,203.53 203.02,199.00
             207.02,192.09 215.28,181.27 220.46,175.00
             222.98,171.95 227.02,167.37 231.00,166.45
             234.98,165.53 238.24,167.66 237.37,172.00
             236.67,175.53 231.25,181.63 229.00,185.00
             232.70,185.52 237.49,187.07 241.00,186.64
             254.51,184.97 264.24,169.71 272.00,160.00
             265.78,162.68 257.94,167.27 251.00,166.79
             242.54,166.21 238.79,159.91 239.04,152.00
             239.34,142.67 244.70,133.24 250.24,126.00
             257.44,116.57 271.10,104.26 283.00,101.53
             288.63,100.24 297.03,102.16 301.00,100.52
             301.00,100.52 307.00,97.32 307.00,97.32
             311.09,95.39 317.53,93.58 322.00,92.84
             324.70,92.11 329.27,91.46 331.70,92.84
             333.75,94.34 334.29,96.83 335.00,99.00
             335.00,99.00 347.00,94.43 347.00,94.43
             355.33,91.43 369.37,90.10 364.89,104.00
             364.89,104.00 342.00,147.00 342.00,147.00
             353.37,147.00 357.96,145.13 359.00,154.00
             359.00,154.00 364.73,151.35 364.73,151.35
             364.73,151.35 374.25,134.00 374.25,134.00
             374.25,134.00 401.00,78.00 401.00,78.00 Z
           M 450.04,58.61
           C 456.88,57.93 461.90,62.17 462.81,69.00
             463.45,73.81 462.41,79.36 456.98,80.68
             444.67,83.68 438.61,63.36 450.04,58.61 Z
           M 361.05,60.02
           C 375.91,54.99 380.06,76.24 371.89,80.83
             360.84,87.04 349.21,69.03 361.05,60.02 Z
           M 469.00,109.00
           C 466.72,109.89 464.59,110.94 462.15,109.73
             458.08,107.73 458.35,101.32 461.31,98.51
             464.56,95.43 471.60,95.16 474.82,93.07
             479.15,90.25 486.91,75.34 496.00,69.74
             501.31,66.46 507.81,69.16 506.26,76.00
             505.33,80.07 499.65,85.29 497.00,89.00
             504.53,89.00 514.31,87.15 517.00,96.00
             517.00,96.00 528.00,92.19 528.00,92.19
             535.40,89.83 544.26,88.11 552.00,87.29
             560.07,86.43 564.01,90.33 560.00,98.00
             575.73,94.83 589.45,89.56 606.00,88.99
             610.56,88.83 620.72,86.97 621.23,94.02
             621.49,97.70 618.28,100.64 615.00,101.57
             615.00,101.57 610.00,102.16 610.00,102.16
             600.06,103.25 595.74,103.55 587.00,109.05
             562.93,124.21 541.60,143.09 527.43,168.00
             527.43,168.00 522.00,179.00 522.00,179.00
             527.95,179.00 538.63,177.26 541.12,184.04
             541.95,185.82 541.97,188.10 541.12,189.77
             538.73,193.56 533.72,192.81 530.00,193.17
             522.98,193.85 516.63,195.28 510.00,197.69
             506.36,199.02 500.62,202.25 497.02,202.19
             493.26,202.13 491.21,199.66 491.21,196.00
             491.21,187.25 502.54,186.85 506.30,182.59
             508.14,180.50 509.68,174.86 510.82,172.00
             510.82,172.00 518.07,157.17 518.07,157.17
             520.33,152.31 518.07,143.55 518.07,138.00
             518.07,138.00 519.00,111.00 519.00,111.00
             510.76,116.08 503.40,115.78 506.00,104.00
             501.92,104.00 492.52,104.08 489.10,106.02
             486.03,107.76 484.27,111.93 482.76,115.00
             479.66,121.28 474.68,134.25 473.46,141.00
             472.76,144.92 472.34,150.81 476.13,153.59
             477.23,154.08 478.36,154.39 479.61,153.59
             481.42,153.02 482.73,149.70 483.60,148.00
             485.29,144.68 488.42,138.63 491.18,136.32
             494.72,133.36 498.61,134.46 499.67,139.02
             500.93,144.40 496.34,150.55 493.86,155.00
             488.05,165.42 488.32,167.96 484.65,178.00
             483.48,181.22 481.44,185.74 477.10,184.34
             470.80,182.31 474.15,172.52 475.00,168.00
             471.97,167.72 469.81,167.42 467.00,166.08
             449.38,157.70 459.33,131.04 465.00,118.00
             465.00,118.00 469.00,109.00 469.00,109.00 Z
           M 205.00,77.00
           C 205.00,77.00 188.96,93.99 188.96,93.99
             188.96,93.99 179.00,105.00 179.00,105.00
             179.00,105.00 203.00,101.00 203.00,101.00
             203.00,101.00 205.00,77.00 205.00,77.00 Z
           M 554.00,101.00
           C 550.40,101.17 541.16,101.93 538.74,104.56
             537.17,106.26 536.76,109.75 536.43,112.00
             536.43,112.00 535.00,133.00 535.00,133.00
             535.00,133.00 556.00,113.00 556.00,113.00
             549.87,109.27 551.33,106.74 554.00,101.00 Z
           M 295.00,114.00
           C 280.57,114.13 269.99,122.79 262.88,135.00
             261.25,137.79 256.62,146.27 259.01,149.25
             261.90,152.87 269.53,147.70 272.00,145.67
             280.25,138.90 291.76,124.27 295.00,114.00 Z" />
</svg>
