<?xml version="1.0" encoding="UTF-8" standalone="no"?>
<!DOCTYPE svg PUBLIC "-//W3C//DTD SVG 20010904//EN"
              "http://www.w3.org/TR/2001/REC-SVG-20010904/DTD/svg10.dtd">

<svg xmlns="http://www.w3.org/2000/svg"
     width="2.34667in" height="0.83in"
     viewBox="0 0 704 249">
  <path id="Selection #6"
        fill="white" stroke="black" stroke-width="6"
        d="M 311.00,62.00
           C 311.00,59.06 316.21,47.96 318.38,45.75
             320.46,43.63 321.87,48.23 324.38,49.12
             330.99,51.50 331.43,57.87 331.25,65.00
             331.25,65.00 328.00,92.00 328.00,92.00
             327.60,94.92 327.25,108.68 325.62,110.88
             322.64,114.92 317.89,104.50 316.00,101.25
             312.83,95.78 313.23,89.87 314.00,84.00
             314.00,84.00 285.00,82.00 285.00,82.00
             285.00,82.00 277.00,112.00 277.00,112.00
             277.00,112.00 293.59,108.02 293.59,108.02
             296.75,105.77 297.73,98.53 303.99,99.68
             309.88,101.88 307.68,109.33 305.38,114.38
             305.38,114.38 298.06,134.00 298.06,134.00
             296.88,137.13 295.21,143.43 293.30,145.77
             290.53,149.16 285.54,149.87 284.33,144.94
             283.51,141.61 285.99,133.48 287.00,130.00
             283.28,129.92 274.57,127.78 272.22,129.06
             269.36,130.63 267.37,136.96 266.35,140.00
             262.73,150.86 261.00,160.56 261.00,171.81
             263.93,171.94 270.79,170.80 272.89,171.81
             277.70,173.47 278.52,181.87 273.85,184.86
             270.45,187.05 252.76,187.99 248.00,187.85
             248.00,187.85 224.00,187.85 224.00,187.85
             221.69,187.36 217.39,186.39 216.01,184.36
             213.83,181.13 217.32,178.78 220.02,177.94
             224.42,176.56 234.93,177.00 240.00,177.00
             240.00,177.00 244.15,150.00 244.15,150.00
             244.15,150.00 253.92,122.00 253.92,122.00
             253.92,122.00 264.00,87.00 264.00,87.00
             260.33,87.83 255.69,89.69 252.04,88.26
             247.42,86.45 243.03,78.79 250.06,73.99
             253.64,71.55 261.67,69.24 266.00,68.00
             277.38,64.74 299.16,62.04 311.00,62.00 Z
           M 484.00,87.00
           C 479.22,89.51 472.74,93.62 471.38,85.00
             470.46,79.17 474.63,75.55 479.00,72.60
             486.70,67.39 494.78,65.61 501.79,73.10
             503.88,75.34 505.37,77.94 505.77,81.00
             506.39,85.68 504.01,91.76 502.14,96.00
             496.86,107.98 491.34,114.47 484.36,125.00
             474.88,139.29 474.00,147.52 474.00,164.00
             479.84,161.68 487.06,159.13 492.96,162.85
             496.25,164.93 499.76,169.78 497.10,173.61
             495.46,175.98 487.97,178.73 485.00,180.13
             476.08,184.84 464.14,195.12 458.01,180.13
             457.14,177.86 457.12,176.23 457.00,174.00
             453.88,177.05 451.96,181.21 447.96,183.31
             445.33,184.70 442.90,184.92 440.00,184.98
             430.67,185.18 426.13,182.00 423.10,173.00
             420.14,164.18 422.88,143.56 426.48,135.00
             428.84,129.39 438.68,119.31 444.00,116.41
             446.47,115.07 450.22,113.98 453.00,113.46
             453.00,113.46 469.63,111.81 469.63,111.81
             471.41,110.91 473.39,107.69 474.50,106.00
             478.08,100.54 482.21,93.26 484.00,87.00 Z
           M 333.00,124.47
           C 351.97,121.81 369.59,133.24 364.24,154.00
             360.48,168.58 344.80,182.93 330.00,185.68
             327.90,186.07 320.92,186.90 319.00,186.63
             308.39,185.18 306.04,174.96 306.16,166.00
             306.16,166.00 306.16,156.00 306.16,156.00
             308.65,142.67 319.51,127.76 333.00,124.47 Z
           M 412.00,125.53
           C 425.67,123.76 421.77,144.01 419.87,152.00
             416.68,165.41 414.44,175.04 403.00,183.98
             400.36,186.05 398.21,187.65 395.00,188.75
             390.83,190.19 386.35,190.05 382.00,190.00
             379.48,189.97 377.45,189.94 375.00,189.20
             356.39,183.59 363.89,163.67 368.68,151.00
             370.23,146.90 372.67,141.48 375.53,138.17
             389.56,122.44 399.38,127.75 412.00,125.53 Z
           M 461.00,126.00
           C 447.53,128.75 440.47,137.86 437.38,151.00
             436.61,155.03 436.16,159.96 437.38,163.98
             437.91,166.38 439.00,169.00 442.04,167.83
             445.09,166.66 448.16,161.88 449.48,159.00
             449.48,159.00 454.86,142.00 454.86,142.00
             454.86,142.00 461.00,126.00 461.00,126.00 Z
           M 336.00,137.07
           C 327.80,140.04 321.86,150.67 320.47,159.00
             319.54,164.52 321.30,170.36 328.00,169.75
             335.02,169.10 346.20,159.28 348.91,153.00
             350.41,149.54 350.63,143.30 347.57,140.59
             345.80,139.03 338.45,137.32 336.00,137.07 Z
           M 402.96,142.43
           C 402.96,142.43 395.00,143.71 395.00,143.71
             387.66,144.72 385.87,145.36 382.53,153.00
             379.61,159.68 376.40,176.54 388.00,175.88
             397.37,175.35 405.37,163.41 407.18,155.00
             408.27,149.94 409.42,143.55 402.96,142.43 Z
           M 397.88,128.44M 323.62,114.75M 338.12,110.25M 338.75,46.88M 349.88,68.62" />
</svg>
