<?xml version="1.0" encoding="UTF-8" standalone="no"?>
<!DOCTYPE svg PUBLIC "-//W3C//DTD SVG 20010904//EN"
              "http://www.w3.org/TR/2001/REC-SVG-20010904/DTD/svg10.dtd">

<svg xmlns="http://www.w3.org/2000/svg"
     width="10em" height="3em"
     viewBox="0 0 731 215"
	 overflow="visible">
  <path id="Selection #4"
        fill="white" stroke="black" stroke-width="6"
        d="M 387.00,26.00
           C 382.92,26.73 375.64,28.68 374.33,22.94
             372.32,14.11 389.92,11.25 396.00,10.00
             410.48,7.05 431.72,5.07 446.00,8.88
             458.04,12.10 465.53,18.89 464.96,32.00
             464.48,43.01 455.74,51.64 447.00,57.30
             433.48,66.06 413.05,70.97 397.00,71.00
             397.00,71.00 383.00,71.76 383.00,71.76
             380.91,71.80 379.39,71.32 377.53,72.69
             375.62,74.08 373.85,77.88 372.75,80.00
             369.64,85.91 366.85,90.45 365.00,97.00
             368.84,97.00 377.81,96.44 380.89,98.17
             385.79,100.93 385.72,107.05 380.89,109.83
             378.09,111.44 370.47,111.93 367.00,112.42
             357.87,113.71 352.61,114.75 344.00,118.43
             339.27,120.45 330.05,126.75 325.28,123.82
             321.61,121.57 321.80,116.41 324.01,113.21
             327.91,107.55 337.12,106.71 340.78,100.90
             340.78,100.90 350.31,80.00 350.31,80.00
             360.25,61.51 372.50,41.20 387.00,26.00 Z
           M 386.00,58.00
           C 386.00,58.00 393.00,58.00 393.00,58.00
             405.12,57.85 424.00,51.39 434.00,44.64
             439.27,41.08 446.87,34.26 444.25,27.00
             441.49,19.38 429.87,18.81 423.00,19.02
             414.96,19.25 412.76,23.33 407.87,29.00
             401.71,36.16 390.56,50.07 386.00,58.00 Z
           M 131.00,61.00
           C 128.39,62.70 124.24,65.64 121.06,65.64
             116.02,65.65 116.56,59.23 118.31,56.17
             120.16,52.97 126.82,48.51 130.00,46.34
             140.17,39.43 153.49,32.43 165.00,28.06
             169.38,26.40 185.01,20.19 182.67,30.99
             181.36,37.00 171.97,38.95 167.00,41.24
             162.05,43.53 160.65,45.60 157.67,50.00
             157.67,50.00 131.69,95.00 131.69,95.00
             125.38,106.64 112.26,131.92 109.00,144.00
             116.52,141.97 127.23,134.71 129.00,145.00
             129.00,145.00 144.61,133.90 144.61,133.90
             144.61,133.90 153.25,117.00 153.25,117.00
             153.25,117.00 167.00,90.00 167.00,90.00
             163.15,92.51 149.88,102.03 150.16,91.00
             150.28,86.39 153.57,83.90 157.00,81.44
             162.55,77.47 175.63,70.53 182.00,68.09
             185.41,66.46 192.30,64.42 194.82,68.09
             197.67,72.70 192.62,80.16 190.42,84.00
             190.42,84.00 169.00,124.00 169.00,124.00
             172.57,122.97 180.45,120.48 183.89,121.44
             189.55,123.02 188.14,130.24 184.61,133.30
             184.61,133.30 162.00,141.86 162.00,141.86
             162.00,141.86 133.00,158.30 133.00,158.30
             127.71,159.97 126.39,157.70 126.00,153.00
             113.36,157.41 95.36,166.01 84.00,173.06
             80.40,175.30 72.64,181.68 68.31,178.96
             62.28,175.17 69.86,167.02 73.00,164.30
             76.14,161.59 81.07,158.90 83.30,155.90
             83.30,155.90 91.86,136.00 91.86,136.00
             91.86,136.00 109.00,100.00 109.00,100.00
             109.00,100.00 80.00,110.58 80.00,110.58
             80.00,110.58 67.39,116.41 67.39,116.41
             67.39,116.41 60.75,128.00 60.75,128.00
             60.75,128.00 48.00,156.00 48.00,156.00
             52.13,155.06 61.29,151.53 64.92,152.35
             70.19,153.53 70.27,161.19 64.92,164.78
             62.44,166.42 54.39,168.87 51.00,170.20
             41.10,174.09 34.23,177.14 25.00,182.60
             21.31,184.79 11.71,192.08 7.74,188.25
             4.91,185.52 6.74,180.87 8.80,178.30
             13.41,172.55 21.58,170.75 24.95,163.96
             24.95,163.96 30.42,151.00 30.42,151.00
             30.42,151.00 41.78,127.00 41.78,127.00
             41.78,127.00 70.00,75.00 70.00,75.00
             67.72,76.55 65.01,78.54 62.12,78.24
             57.09,77.73 56.57,70.81 62.12,65.46
             70.84,57.24 93.56,45.71 105.00,41.01
             109.04,39.35 119.18,34.97 120.64,42.06
             122.55,51.32 107.87,52.60 102.04,57.39
             98.29,60.47 94.21,67.68 91.60,72.00
             91.60,72.00 77.00,98.00 77.00,98.00
             77.00,98.00 106.00,86.42 106.00,86.42
             106.00,86.42 117.90,81.49 117.90,81.49
             117.90,81.49 131.00,61.00 131.00,61.00 Z
           M 201.00,32.54
           C 209.16,31.63 213.90,37.16 210.85,45.00
             208.93,49.97 204.16,53.42 199.00,54.46
             190.80,56.10 187.46,48.97 189.65,42.00
             191.44,36.31 195.67,34.10 201.00,32.54 Z
           M 214.00,78.00
           C 211.31,79.37 207.24,81.53 204.15,80.36
             199.95,78.78 200.34,72.62 205.19,68.96
             210.64,64.85 218.52,64.24 223.99,59.73
             226.70,57.49 228.82,54.59 231.17,52.00
             235.41,47.31 245.77,36.68 251.00,33.80
             257.78,30.07 263.20,33.28 261.24,39.00
             259.96,42.76 252.09,49.91 249.00,53.00
             254.87,51.93 259.97,50.77 266.00,51.02
             275.78,51.43 273.09,60.34 268.87,62.83
             262.83,66.38 241.78,64.97 234.90,74.05
             229.83,80.75 219.32,101.82 217.16,110.00
             215.91,114.71 216.95,123.53 223.90,121.34
             226.75,120.45 228.57,116.41 230.06,114.00
             232.76,109.62 237.04,102.47 241.04,99.43
             244.36,96.90 250.50,95.64 251.64,101.06
             252.54,105.29 248.56,110.70 246.28,114.00
             241.19,121.40 237.57,126.66 234.00,135.00
             232.03,139.60 228.38,149.68 224.87,152.69
             221.07,155.93 216.14,155.51 215.24,149.98
             214.51,145.47 217.14,140.00 219.00,136.00
             205.97,139.17 195.08,133.94 196.46,119.00
             197.97,102.72 206.36,91.66 214.00,78.00 Z
           M 545.02,42.74
           C 559.84,39.28 561.63,58.59 551.98,62.26
             541.33,66.31 532.66,49.55 545.02,42.74 Z
           M 474.00,58.52
           C 480.97,57.50 479.55,59.06 485.00,59.88
             487.68,60.29 490.28,59.69 493.00,60.74
             499.01,63.06 501.27,70.05 500.82,76.00
             499.40,94.66 478.19,118.60 460.00,122.48
             441.83,126.36 434.09,110.69 437.90,95.00
             441.63,79.63 458.84,62.69 474.00,58.52 Z
           M 519.00,83.00
           C 516.14,83.52 510.75,84.78 508.06,83.94
             504.09,82.70 503.02,77.67 505.17,74.42
             506.85,71.88 511.20,71.05 514.00,70.64
             519.32,69.23 535.31,67.36 539.57,70.64
             541.22,72.20 541.71,73.96 541.88,76.00
             542.36,81.89 538.62,85.57 535.42,90.00
             535.42,90.00 518.00,116.00 518.00,116.00
             526.53,118.26 532.37,117.32 533.00,128.00
             544.15,126.48 541.22,125.34 549.01,112.00
             549.01,112.00 560.00,94.12 560.00,94.12
             557.48,94.44 554.53,95.21 552.06,94.12
             547.20,92.35 547.31,86.05 549.60,83.51
             551.21,81.72 553.76,81.33 556.00,80.92
             560.96,80.02 575.76,78.65 579.57,81.89
             582.08,84.03 581.92,87.01 582.00,90.00
             584.60,89.16 587.23,88.18 590.00,88.18
             600.39,88.20 605.48,97.67 604.91,107.00
             604.28,117.16 597.01,129.31 592.00,138.00
             595.49,138.70 601.05,139.60 603.49,142.30
             605.99,145.07 606.90,151.66 602.72,153.36
             600.40,154.31 594.70,152.64 592.00,152.48
             587.79,151.74 580.14,151.82 576.00,152.48
             573.07,153.27 566.88,155.41 564.23,154.36
             560.59,152.93 561.44,148.45 560.41,146.22
             559.34,143.92 557.30,143.25 555.00,142.68
             539.02,138.72 521.94,150.54 525.00,131.05
             514.51,129.62 509.76,128.46 499.00,131.05
             494.80,131.84 488.15,134.42 484.43,131.05
             481.36,128.65 481.54,123.35 484.43,120.70
             488.13,117.30 494.96,117.98 498.61,114.57
             500.45,112.86 503.67,106.57 505.20,104.00
             509.49,96.81 513.88,89.63 519.00,83.00 Z
           M 471.00,72.00
           C 468.08,74.55 463.79,79.02 461.32,82.00
             459.36,84.37 457.45,87.19 456.18,90.00
             452.97,97.14 452.78,108.21 464.00,105.44
             472.05,103.45 480.95,93.52 483.88,86.00
             484.87,83.47 486.30,78.81 484.79,76.31
             482.42,72.41 478.08,75.73 471.00,72.00 Z
           M 628.00,114.00
           C 616.99,114.87 618.00,105.39 621.31,102.60
             623.20,101.01 625.68,101.04 628.00,101.00
             630.91,100.95 635.41,101.40 638.00,100.41
             642.17,98.81 654.67,86.89 663.00,84.64
             669.74,82.82 672.96,88.07 670.34,93.96
             668.57,97.93 661.61,101.95 658.00,105.00
             663.97,106.36 673.68,108.91 674.76,116.00
             675.37,120.00 673.69,124.62 668.98,124.53
             664.87,124.45 652.01,117.23 647.00,118.69
             643.22,119.79 639.20,125.85 636.88,129.00
             632.01,135.65 622.42,149.46 626.01,157.96
             627.16,160.68 628.90,162.07 631.00,164.00
             633.67,159.35 638.77,151.72 644.00,149.90
             650.26,147.72 653.82,155.38 650.07,162.00
             647.79,166.03 641.96,169.92 636.31,180.00
             634.82,182.65 631.08,190.65 628.73,191.93
             625.41,193.76 622.74,190.96 621.82,187.96
             620.38,183.28 622.90,178.09 625.00,174.00
             621.69,172.49 619.75,171.54 617.10,168.90
             606.61,158.41 609.58,141.59 616.45,130.00
             616.45,130.00 628.00,114.00 628.00,114.00 Z
           M 572.00,139.00
           C 573.57,138.17 574.06,138.15 575.37,136.71
             577.30,134.59 586.17,117.41 587.55,114.00
             588.56,111.50 590.81,106.15 588.25,103.99
             585.25,101.47 578.74,104.32 576.00,106.11
             568.36,111.09 560.70,120.93 559.00,130.00
             565.60,131.55 568.64,132.89 572.00,139.00 Z
           M 654.00,187.00
           C 652.85,189.67 650.62,195.52 647.79,196.60
             642.36,198.68 640.80,190.65 641.11,187.00
             641.78,178.93 651.36,166.55 657.00,161.02
             659.81,158.27 663.54,154.45 667.90,155.47
             672.92,156.65 673.50,162.96 671.77,166.96
             670.72,169.40 669.55,170.40 667.85,172.28
             666.65,173.61 664.98,175.11 664.76,177.00
             664.23,181.56 674.54,188.67 678.94,187.31
             685.14,185.40 682.05,177.92 680.22,174.00
             674.62,162.02 666.64,149.72 671.55,136.00
             677.78,118.58 701.04,122.42 708.00,137.00
             710.52,134.99 714.85,131.38 718.00,130.76
             723.52,129.66 726.96,135.37 725.43,141.00
             723.76,147.11 716.47,151.61 712.29,156.09
             712.29,156.09 702.53,168.56 702.53,168.56
             700.13,170.63 698.90,170.37 696.00,170.00
             699.72,182.86 699.82,210.60 679.00,205.24
             666.72,202.08 663.17,193.62 654.00,187.00 Z
           M 693.00,161.00
           C 694.24,158.12 699.22,149.15 699.16,147.01
             699.01,142.11 691.12,138.09 687.60,141.60
             683.37,145.82 690.10,157.35 693.00,161.00 Z
           M 776.67,173.67" />
</svg>
