<?xml version="1.0" encoding="UTF-8" standalone="no"?>
<!DOCTYPE svg PUBLIC "-//W3C//DTD SVG 20010904//EN"
              "http://www.w3.org/TR/2001/REC-SVG-20010904/DTD/svg10.dtd">

<svg xmlns="http://www.w3.org/2000/svg"
     width="2.34333in" height="0.83in"
     viewBox="0 0 703 249">
  <path id="Selection #5"
        fill="white" stroke="black" stroke-width="6"
        d="M 246.00,66.00
           C 258.77,79.43 258.50,93.75 255.20,111.00
             248.83,144.21 235.12,164.69 203.00,177.40
             183.38,185.16 158.67,185.34 149.95,162.00
             147.81,156.28 147.97,150.97 148.00,145.00
             148.09,125.51 161.75,104.44 175.01,91.00
             185.83,80.05 203.04,68.39 217.00,61.78
             222.76,59.05 242.30,50.95 248.00,51.51
             253.08,52.02 255.60,57.40 252.98,61.78
             251.49,64.26 248.55,65.08 246.00,66.00 Z
           M 221.00,76.45
           C 214.87,78.45 207.13,84.00 202.00,88.01
             187.84,99.11 174.94,114.43 169.91,132.00
             166.53,143.79 165.46,163.37 182.00,164.81
             186.60,165.22 193.69,163.07 198.00,161.39
             220.58,152.55 230.47,132.21 235.87,110.00
             238.30,100.00 240.44,88.10 231.90,80.22
             228.52,77.11 225.47,76.16 221.00,76.45 Z
           M 405.00,174.00
           C 392.05,179.49 379.76,181.47 374.11,165.00
             373.09,162.04 373.04,160.06 373.00,157.00
             372.77,137.94 380.93,121.19 397.00,110.36
             403.38,106.06 410.23,103.61 418.00,104.04
             430.40,104.73 433.43,116.73 431.11,127.00
             430.29,130.64 430.04,133.65 427.00,136.00
             431.15,147.05 427.24,149.10 422.86,159.00
             420.30,164.79 418.43,170.91 416.74,177.00
             415.70,180.79 414.42,189.83 411.35,192.17
             408.41,194.41 404.92,191.85 403.74,188.95
             402.18,185.13 404.23,178.08 405.00,174.00 Z
           M 454.00,123.00
           C 449.48,124.47 442.80,126.77 441.33,119.98
             440.37,115.53 443.29,112.77 447.00,111.11
             452.04,108.85 466.99,103.84 471.57,107.74
             473.85,109.67 473.84,112.28 474.00,115.00
             485.98,106.84 496.64,112.63 496.99,127.00
             497.22,136.50 492.82,152.29 489.00,161.00
             495.28,162.02 497.77,159.63 501.00,165.00
             501.00,165.00 503.00,165.00 503.00,165.00
             504.17,160.90 508.52,150.79 513.04,149.82
             514.97,149.41 516.34,150.29 518.00,151.00
             514.69,143.19 512.53,136.66 514.53,128.00
             517.70,114.27 530.54,110.76 542.00,117.00
             543.41,114.12 547.45,106.20 551.69,108.17
             553.46,108.99 553.84,111.28 553.90,113.00
             554.10,118.15 551.57,121.69 549.32,126.00
             549.32,126.00 541.15,146.86 541.15,146.86
             539.78,148.81 538.97,149.00 537.00,150.00
             543.80,163.34 543.55,187.55 524.00,188.79
             517.39,189.21 511.69,185.73 506.00,183.00
             505.30,186.08 503.69,192.47 501.49,194.67
             498.47,197.70 495.33,195.60 494.47,191.98
             493.50,187.93 496.65,179.05 498.00,175.00
             489.59,177.05 486.94,175.63 478.00,180.32
             475.16,181.81 467.79,187.04 465.05,186.76
             460.26,186.26 460.19,180.44 461.00,177.00
             453.91,177.00 450.88,176.49 444.00,179.06
             440.94,180.21 432.71,184.35 430.02,184.18
             426.67,183.97 424.71,181.07 424.24,178.00
             422.61,167.29 435.49,166.13 439.15,160.87
             439.15,160.87 444.05,147.00 444.05,147.00
             444.05,147.00 454.00,123.00 454.00,123.00 Z
           M 273.00,132.00
           C 269.98,133.40 266.45,135.18 263.01,134.73
             257.44,134.01 254.25,126.99 257.02,122.13
             258.86,118.90 264.62,117.12 268.00,115.81
             277.45,112.16 291.24,105.55 294.00,120.00
             296.68,117.45 299.55,114.58 303.00,113.09
             305.49,112.01 308.33,111.90 311.00,112.04
             319.10,112.46 322.31,116.97 325.00,124.00
             328.22,120.94 330.93,118.36 335.00,116.40
             345.27,111.46 355.83,114.23 359.07,126.00
             359.88,128.93 360.08,131.98 359.96,135.00
             359.96,135.00 353.00,164.00 353.00,164.00
             356.11,163.43 363.10,161.71 365.89,162.78
             370.17,164.40 371.21,171.28 368.40,174.57
             365.80,177.61 356.33,178.50 352.00,180.09
             344.99,182.66 334.17,190.64 331.00,191.91
             324.82,194.40 322.63,190.43 322.00,185.00
             322.00,185.00 307.00,191.32 307.00,191.32
             304.41,192.55 299.29,195.81 297.00,196.30
             290.28,197.74 289.13,190.88 289.00,186.00
             276.28,186.00 273.82,187.30 262.00,189.79
             257.32,190.78 253.07,191.87 249.37,187.77
             246.96,185.00 246.12,180.59 249.37,178.00
             252.50,175.42 259.70,175.20 262.44,172.44
             264.71,170.16 265.71,163.25 266.42,160.00
             266.42,160.00 273.00,132.00 273.00,132.00 Z
           M 417.00,116.00
           C 408.46,116.21 403.44,119.75 399.00,127.00
             399.00,127.00 415.98,122.41 415.98,122.41
             415.98,122.41 417.00,116.00 417.00,116.00 Z
           M 537.00,128.00
           C 535.78,127.55 534.29,126.90 533.00,126.71
             528.35,126.03 525.62,129.58 526.69,134.00
             527.69,138.14 530.78,141.46 534.00,144.00
             534.00,144.00 537.00,128.00 537.00,128.00 Z
           M 483.00,127.00
           C 480.39,127.07 478.48,127.01 476.00,128.09
             466.00,132.42 457.94,150.58 457.00,161.00
             463.81,161.90 466.43,161.59 470.00,168.00
             470.00,168.00 472.00,168.00 472.00,168.00
             476.94,156.74 482.99,139.17 483.00,127.00 Z
           M 309.24,131.00
           C 306.46,131.07 304.36,130.99 302.00,132.17
             291.59,137.40 283.93,160.87 283.00,172.00
             294.30,172.01 292.41,171.78 300.00,179.00
             300.00,179.00 307.20,151.00 307.20,151.00
             307.20,151.00 309.24,135.00 309.24,135.00
             309.24,135.00 309.24,131.00 309.24,131.00 Z
           M 331.00,175.00
           C 336.42,172.91 335.86,170.22 337.13,165.00
             337.13,165.00 342.77,144.00 342.77,144.00
             343.32,141.59 344.48,136.57 343.40,134.31
             342.15,131.71 339.21,132.17 337.00,133.09
             332.51,134.97 329.59,138.89 327.31,143.00
             325.37,146.51 323.64,150.20 322.36,154.00
             322.36,154.00 318.00,172.00 318.00,172.00
             324.33,170.73 327.13,168.64 331.00,175.00 Z
           M 420.00,137.00
           C 413.92,137.50 403.94,139.72 398.00,141.43
             395.47,142.15 391.70,143.12 390.17,145.42
             388.35,148.17 387.77,157.99 394.04,160.22
             396.84,161.22 400.35,159.94 403.00,158.94
             412.07,155.49 411.36,153.72 415.27,146.00
             415.27,146.00 420.00,137.00 420.00,137.00 Z
           M 519.00,151.00
           C 519.00,151.00 517.41,160.04 517.41,160.04
             517.41,160.04 512.00,172.00 512.00,172.00
             518.40,175.49 531.26,177.65 528.58,166.00
             527.67,162.05 521.59,154.84 519.00,151.00 Z" />
</svg>
