<?xml version="1.0" encoding="UTF-8" standalone="no"?>
<!DOCTYPE svg PUBLIC "-//W3C//DTD SVG 20010904//EN"
              "http://www.w3.org/TR/2001/REC-SVG-20010904/DTD/svg10.dtd">

<svg xmlns="http://www.w3.org/2000/svg"
     width="2.34333in" height="0.83in"
     viewBox="0 0 703 249">
  <path id="Selection #1"
        fill="white" stroke="black" stroke-width="6"
        d="M 102.00,82.00
           C 98.21,83.23 93.01,84.93 89.11,83.26
             87.52,82.59 86.38,81.52 85.76,79.89
             83.63,74.33 89.86,71.15 94.00,69.45
             102.87,65.81 112.62,63.71 122.00,61.80
             139.31,58.28 159.85,55.57 177.00,61.03
             196.97,67.38 207.28,88.03 191.90,105.00
             171.90,127.05 135.18,131.94 107.00,132.00
             104.63,132.00 101.39,131.78 99.32,133.02
             97.11,134.35 94.48,138.76 93.05,141.00
             89.50,146.59 84.20,154.03 82.00,160.00
             87.80,159.23 101.91,157.74 106.57,161.74
             109.80,164.51 109.68,170.17 104.94,172.69
             102.59,173.94 90.17,174.96 87.00,175.00
             76.36,175.12 65.54,175.86 55.00,177.43
             50.14,178.15 34.99,180.84 31.00,180.35
             26.36,179.78 22.39,175.93 23.47,171.02
             24.52,166.24 28.93,165.58 33.00,165.00
             39.76,164.03 44.53,164.54 49.33,158.95
             49.33,158.95 78.69,116.00 78.69,116.00
             78.69,116.00 102.00,82.00 102.00,82.00 Z
           M 108.00,118.00
           C 125.16,117.84 148.94,111.45 163.00,101.56
             169.61,96.91 177.72,88.88 173.23,80.09
             169.57,72.92 158.16,71.85 151.00,72.01
             148.19,72.08 139.39,72.93 137.17,74.17
             133.90,76.01 129.84,82.74 127.67,86.00
             122.65,93.52 110.23,110.37 108.00,118.00 Z
           M 561.00,113.00
           C 547.06,119.01 538.88,127.37 532.20,141.00
             530.57,144.47 526.42,153.42 532.20,155.45
             534.55,156.30 537.96,154.61 540.00,153.39
             545.86,149.91 550.62,144.93 556.00,140.94
             558.54,138.88 563.65,135.51 564.58,140.94
             565.35,145.64 559.87,151.94 556.96,155.00
             556.96,155.00 551.00,160.91 551.00,160.91
             543.21,168.16 523.44,183.24 515.09,168.98
             511.37,162.65 513.38,152.55 515.70,146.00
             521.88,128.52 536.50,113.01 553.00,104.81
             562.98,99.85 566.58,101.66 570.00,100.40
             573.07,99.27 579.82,92.45 584.00,89.76
             585.98,88.49 589.25,86.61 591.67,87.64
             596.45,89.68 589.76,97.13 587.96,98.96
             583.52,103.47 581.38,104.17 576.44,110.00
             573.41,113.57 564.71,126.45 561.91,127.98
             560.00,129.01 558.08,128.93 556.00,129.00
             556.08,120.64 557.19,120.22 561.00,113.00 Z
           M 602.00,159.00
           C 594.30,164.06 581.88,169.99 574.21,161.89
             571.72,159.26 570.46,156.59 570.27,153.00
             569.85,150.39 570.03,146.60 570.27,144.00
             572.89,128.43 583.63,114.98 596.00,105.76
             606.03,98.28 623.37,89.82 636.00,89.22
             637.52,89.00 639.51,89.04 641.00,89.22
             653.89,91.96 648.21,104.77 643.68,112.00
             641.21,115.94 640.54,118.47 636.00,120.00
             638.88,130.24 631.06,134.98 625.44,143.00
             619.53,151.44 616.32,160.41 613.00,170.00
             611.46,174.43 608.94,180.03 603.11,178.67
             595.59,176.91 600.93,163.73 602.00,159.00 Z
           M 630.00,102.00
           C 620.29,102.22 611.80,107.27 605.00,114.00
             609.47,113.37 624.69,110.28 627.57,107.49
             629.35,105.77 629.51,104.25 630.00,102.00 Z
           M 360.00,117.00
           C 364.49,105.54 373.85,104.60 375.09,112.02
             375.71,115.70 373.54,119.05 371.65,122.00
             369.24,125.77 366.84,128.90 364.89,133.00
             361.89,139.30 361.33,145.79 354.00,148.00
             356.10,152.09 358.27,156.32 358.61,161.00
             358.87,164.47 357.50,169.81 356.12,173.00
             348.58,190.49 327.99,193.14 312.00,187.00
             310.09,191.44 304.99,204.68 298.29,202.16
             292.37,199.93 299.58,187.20 301.31,184.00
             304.73,177.68 315.73,158.49 320.44,154.43
             324.08,151.30 329.11,151.47 329.68,157.02
             330.01,160.15 328.40,163.45 326.76,166.00
             324.16,170.05 323.54,170.06 321.00,175.00
             323.60,175.84 326.23,176.82 329.00,176.82
             333.46,176.81 341.92,173.19 342.06,167.99
             342.14,165.00 338.94,162.01 337.00,160.04
             332.76,155.75 328.88,152.82 326.48,147.00
             321.99,136.10 325.33,120.98 337.00,116.13
             345.28,112.69 351.86,114.36 360.00,117.00 Z
           M 461.00,127.00
           C 458.18,128.23 454.17,130.02 451.05,129.68
             445.43,129.07 445.57,122.73 448.51,119.22
             450.83,116.45 454.70,115.44 458.00,114.33
             463.35,112.54 479.07,105.79 483.40,110.51
             484.89,112.14 484.83,113.97 485.00,116.00
             487.91,114.47 490.82,112.70 494.00,111.79
             503.50,109.06 510.58,113.77 509.82,124.00
             508.91,136.17 500.27,148.43 497.00,160.00
             503.21,159.50 511.24,157.00 509.85,167.00
             508.78,174.72 500.38,173.73 492.00,176.70
             486.19,178.75 480.33,182.20 475.00,185.30
             472.81,186.58 469.71,188.92 467.06,188.26
             462.59,187.15 463.01,181.52 463.00,178.00
             453.45,178.44 446.79,180.34 438.00,183.80
             434.60,185.13 428.72,187.87 425.33,185.81
             420.71,183.08 422.23,176.66 425.33,173.53
             429.71,169.26 436.59,169.18 440.36,164.78
             440.36,164.78 448.25,149.00 448.25,149.00
             448.25,149.00 461.00,127.00 461.00,127.00 Z
           M 402.00,177.00
           C 397.48,178.79 392.91,180.61 388.00,180.91
             371.97,181.89 368.13,166.92 370.46,154.00
             373.11,139.29 382.52,126.09 395.00,118.09
             403.08,112.91 418.61,106.72 428.00,111.31
             440.33,117.35 436.54,137.53 429.00,142.00
             433.38,151.47 427.94,155.10 423.06,163.00
             419.76,168.36 416.65,175.19 414.15,181.00
             412.83,184.06 409.84,192.45 407.59,194.26
             404.40,196.81 399.70,195.56 398.66,190.96
             397.80,187.16 400.71,180.72 402.00,177.00 Z
           M 202.00,130.00
           C 198.65,130.76 192.08,133.11 189.02,132.48
             184.09,131.47 180.74,125.24 186.15,120.42
             189.24,117.66 195.94,116.17 200.00,115.00
             208.89,112.45 229.42,105.04 228.96,121.00
             228.89,123.25 228.53,124.84 228.00,127.00
             228.00,127.00 239.68,120.31 239.68,120.31
             239.68,120.31 245.18,114.22 245.18,114.22
             252.73,107.25 262.35,113.27 260.43,123.00
             259.14,129.55 253.99,131.42 252.02,135.09
             249.64,139.53 252.97,143.94 247.85,148.61
             243.71,152.39 236.34,153.52 233.17,147.89
             231.71,145.29 232.00,140.96 232.00,138.00
             217.02,148.94 210.31,150.27 199.00,167.00
             203.35,167.00 212.19,166.59 215.77,168.98
             219.94,171.76 218.90,177.51 214.87,179.83
             212.46,181.21 208.73,181.00 206.00,181.00
             186.95,181.03 186.05,181.67 168.00,186.86
             164.73,187.80 156.44,191.17 153.60,188.97
             149.59,185.87 153.93,178.91 157.04,176.70
             161.40,173.60 170.29,172.32 173.82,169.49
             176.16,167.61 182.58,158.03 184.66,155.00
             184.66,155.00 202.00,130.00 202.00,130.00 Z
           M 278.00,184.00
           C 266.76,188.71 251.96,189.12 249.47,174.00
             248.84,171.19 249.12,168.77 249.47,166.00
             252.61,149.02 264.54,127.71 279.00,118.10
             286.05,113.42 297.28,109.35 304.91,114.85
             312.48,120.31 312.67,129.74 311.00,138.00
             310.10,142.44 310.02,145.48 306.00,148.00
             310.23,157.15 305.72,161.40 300.86,169.00
             300.86,169.00 290.01,187.00 290.01,187.00
             287.90,190.59 284.35,197.84 280.82,199.82
             277.17,201.87 272.93,200.84 273.27,195.98
             273.47,193.02 276.69,187.05 278.00,184.00 Z
           M 419.00,130.00
           C 421.82,113.13 403.32,127.78 399.00,133.00
             399.00,133.00 419.00,130.00 419.00,130.00 Z
           M 627.00,122.00
           C 620.64,122.52 597.09,128.18 592.21,131.27
             588.50,133.63 585.81,141.79 588.87,145.49
             591.96,149.22 598.40,146.45 602.00,144.99
             612.97,140.52 612.14,139.37 619.30,131.00
             619.30,131.00 627.00,122.00 627.00,122.00 Z
           M 297.00,135.00
           C 297.00,135.00 297.55,131.02 297.55,131.02
             297.46,126.70 294.56,125.95 291.00,127.43
             286.01,129.51 282.50,133.35 280.00,138.00
             280.00,138.00 297.00,135.00 297.00,135.00 Z
           M 353.00,128.00
           C 351.33,127.60 349.73,127.16 348.00,127.13
             342.74,127.05 338.39,130.55 341.03,136.00
             342.80,139.67 346.44,142.32 350.00,144.00
             350.00,144.00 353.00,128.00 353.00,128.00 Z
           M 474.00,169.00
           C 478.67,167.41 479.22,164.34 481.14,160.00
             481.14,160.00 490.72,139.00 490.72,139.00
             491.69,136.69 494.29,130.85 492.23,128.69
             489.34,125.66 482.18,131.27 480.00,133.18
             471.63,140.50 462.09,152.85 460.00,164.00
             466.35,164.00 470.71,162.60 474.00,169.00 Z
           M 422.00,143.00
           C 416.95,143.11 394.96,146.34 391.14,148.43
             387.24,150.56 386.09,157.15 388.18,160.89
             390.82,165.63 395.58,164.89 400.00,163.71
             412.05,160.50 415.47,152.78 422.00,143.00 Z
           M 300.00,149.00
           C 300.00,149.00 279.00,153.12 279.00,153.12
             276.55,153.68 272.33,154.31 270.43,155.85
             267.25,158.44 263.93,170.68 273.00,171.69
             276.40,172.06 285.11,169.39 287.79,167.30
             290.45,165.24 298.48,152.38 300.00,149.00 Z" />
</svg>
