<?xml version="1.0" encoding="UTF-8" standalone="no"?>
<!DOCTYPE svg PUBLIC "-//W3C//DTD SVG 20010904//EN"
              "http://www.w3.org/TR/2001/REC-SVG-20010904/DTD/svg10.dtd">

<svg xmlns="http://www.w3.org/2000/svg"
     width="2.34667in" height="0.83in"
     viewBox="0 0 704 249">
  <path id="Selection #7"
        fill="white" stroke="black" stroke-width="6"
        d="M 0.00,249.00 0.00,249.00 0.00,249.00 0.00,249.00
           M 280.00,64.00
           C 274.33,67.12 274.27,74.06 274.00,80.00
             266.08,80.00 259.54,79.78 252.00,82.95
             248.26,84.53 243.18,87.90 240.17,90.62
             228.13,101.49 224.85,118.84 230.10,134.00
             232.60,141.21 238.37,150.65 242.67,157.00
             248.09,165.01 259.63,175.79 258.44,186.00
             258.07,189.22 256.61,192.46 254.61,194.99
             247.33,204.16 236.55,205.57 226.00,201.90
             226.00,201.90 215.00,197.00 215.00,197.00
             217.44,192.42 222.96,186.93 223.68,183.00
             224.71,177.37 219.74,172.78 214.00,175.47
             208.39,178.10 200.34,188.50 197.31,194.00
             194.97,198.26 191.59,206.09 192.38,211.00
             193.37,217.13 199.30,219.23 202.16,216.40
             203.42,215.15 205.24,209.90 206.00,208.00
             231.29,226.08 270.23,213.10 272.49,180.00
             273.61,163.60 261.40,151.42 252.72,139.00
             248.47,132.92 242.69,123.74 244.39,116.00
             245.99,108.73 254.06,100.76 261.00,98.47
             263.92,97.50 268.92,96.12 271.23,99.31
             272.31,101.43 271.39,104.66 271.23,107.00
             270.88,110.10 270.76,120.28 271.23,122.98
             272.91,127.47 277.31,128.91 279.19,125.75
             280.92,122.84 281.58,116.39 281.62,112.94
             281.62,112.94 283.50,69.50 283.50,69.50
             283.00,66.72 281.26,66.47 280.00,64.00 Z
           M 342.00,173.00
           C 346.63,155.53 349.43,137.95 351.17,120.00
             351.17,120.00 352.96,98.00 352.96,98.00
             352.70,92.01 349.22,83.86 342.00,84.45
             336.43,84.89 322.98,94.46 321.82,100.01
             321.02,103.86 323.53,110.20 328.02,110.41
             330.66,110.54 333.02,108.47 335.00,107.00
             334.96,121.66 330.56,147.21 327.60,162.00
             326.87,165.62 324.65,177.33 323.07,179.91
             321.78,182.00 319.84,183.43 318.00,185.00
             313.94,177.42 308.60,181.49 302.00,183.00
             304.42,172.30 311.57,151.16 311.87,141.00
             311.87,141.00 311.87,136.00 311.87,136.00
             310.79,129.67 306.94,127.01 301.00,130.05
             296.02,132.60 284.88,142.66 283.43,148.00
             282.35,152.00 283.13,158.97 289.00,157.21
             291.61,156.42 294.06,153.83 296.00,152.00
             292.72,160.91 288.46,183.19 284.01,189.96
             281.28,194.10 277.57,195.34 274.06,198.47
             271.62,200.63 268.23,205.34 271.60,208.31
             274.27,210.66 279.53,207.41 282.00,205.99
             297.02,197.34 294.69,198.75 310.00,192.00
             311.18,197.37 313.52,199.03 319.00,197.01
             326.05,194.40 332.45,187.08 351.00,182.37
             354.56,181.47 362.06,180.49 360.34,175.04
             358.02,167.67 346.97,171.18 342.00,173.00 Z
           M 304.04,91.86
           C 302.45,92.29 302.08,91.93 300.74,93.45
             296.84,97.83 299.05,116.59 308.00,116.18
             312.28,115.98 313.81,111.62 313.94,108.00
             314.18,101.30 310.96,93.58 304.04,91.86 Z
           M 371.00,135.00
           C 372.88,143.31 379.76,166.83 383.26,174.00
             385.27,178.12 389.09,185.35 394.89,183.36
             398.82,182.01 401.60,172.72 403.31,169.00
             403.31,169.00 409.14,157.00 409.14,157.00
             409.14,157.00 420.41,131.00 420.41,131.00
             422.42,127.42 425.14,124.67 429.00,123.15
             432.87,121.62 437.10,122.49 438.31,118.85
             440.77,111.46 430.85,107.75 425.00,108.09
             415.80,108.62 404.47,112.66 397.00,118.00
             393.17,100.04 369.91,114.14 362.00,121.18
             360.04,122.93 357.33,125.64 356.18,128.00
             353.71,133.06 356.96,139.08 362.02,139.39
             365.39,139.59 368.49,136.92 371.00,135.00 Z
           M 473.47,151.73
           C 477.22,149.16 477.58,145.36 478.05,141.00
             479.44,128.02 475.81,117.63 461.00,116.52
             435.23,114.58 428.85,149.73 437.32,168.00
             442.49,179.14 450.39,186.06 463.00,183.00
             463.24,189.85 464.47,189.74 471.00,191.00
             471.00,191.00 474.12,173.00 474.12,173.00
             476.25,164.45 479.53,158.53 473.47,151.73 Z
           M 393.00,122.00
           C 396.35,128.14 396.17,131.33 404.00,133.00
             404.00,133.00 394.00,159.00 394.00,159.00
             394.00,159.00 386.66,137.00 386.66,137.00
             386.66,137.00 384.62,127.39 384.62,127.39
             384.62,127.39 393.00,122.00 393.00,122.00 Z
           M 515.00,144.00
           C 516.43,142.39 517.89,140.87 518.85,139.00
             520.70,136.13 522.09,131.70 518.85,129.45
             516.07,127.71 511.10,128.00 508.00,128.00
             501.60,128.01 487.19,128.15 485.47,136.02
             483.62,144.53 491.82,143.89 497.00,142.00
             492.93,150.51 490.56,154.44 488.42,164.00
             488.42,164.00 485.42,180.87 485.42,180.87
             483.44,185.27 475.82,185.49 477.66,190.87
             478.67,193.84 482.31,194.47 485.00,194.84
             489.76,195.50 494.66,195.62 499.00,197.92
             505.05,201.11 506.33,205.04 513.00,207.00
             513.00,200.61 513.23,193.29 508.61,188.21
             505.27,184.54 501.00,184.23 499.61,180.79
             498.60,178.29 499.82,174.42 500.71,172.00
             504.02,163.06 510.47,159.07 518.00,154.00
             516.57,159.04 515.99,167.91 522.10,170.24
             524.01,170.97 526.07,170.69 527.81,169.68
             533.40,166.44 531.25,159.72 534.72,155.22
             537.65,151.43 543.69,151.26 547.85,144.91
             550.90,140.27 550.77,134.57 544.00,134.36
             538.57,134.19 533.84,137.34 529.00,139.23
             523.42,141.40 522.72,140.07 515.00,144.00 Z
           M 452.00,138.00
           C 454.83,129.77 465.55,124.02 466.00,137.00
             466.00,137.00 452.00,138.00 452.00,138.00 Z
           M 465.00,168.00
           C 461.15,168.87 456.83,170.79 453.04,168.82
             449.20,166.82 444.33,156.53 448.57,153.17
             450.09,151.98 453.12,152.04 455.00,151.84
             455.00,151.84 471.18,151.00 471.18,151.00
             468.12,154.98 466.13,160.02 465.00,168.00 Z" />
</svg>
