<?xml version="1.0" encoding="UTF-8" standalone="no"?>
<!DOCTYPE svg PUBLIC "-//W3C//DTD SVG 20010904//EN"
              "http://www.w3.org/TR/2001/REC-SVG-20010904/DTD/svg10.dtd">

<svg xmlns="http://www.w3.org/2000/svg"
     width="2.34333in" height="0.83in"
     viewBox="0 0 703 249">
  <path id="Selection"
        fill="white" stroke="black" stroke-width="6"
        d="M 38.00,146.00
           C 36.89,149.89 34.10,156.86 30.79,159.26
             26.56,162.34 20.95,160.74 20.80,155.00
             20.70,150.56 23.67,145.76 25.69,142.00
             31.36,131.48 36.99,123.23 44.61,114.00
             47.53,110.48 53.73,103.54 58.96,104.92
             60.62,105.36 62.01,106.59 62.79,108.11
             65.45,113.35 58.99,119.30 56.02,123.00
             54.96,124.32 53.36,126.09 53.34,127.90
             53.26,133.34 68.01,134.95 72.00,135.00
             76.04,135.04 81.11,135.21 85.00,134.32
             94.70,132.09 106.85,122.86 106.82,112.00
             106.79,104.35 99.28,97.39 94.00,92.72
             84.44,84.25 71.14,71.90 72.10,58.00
             73.94,31.17 113.39,22.51 135.00,22.01
             137.80,21.95 143.46,22.70 145.61,21.23
             148.73,19.11 150.63,10.84 157.00,9.47
             162.04,8.39 165.76,12.42 164.35,18.00
             163.29,22.18 157.45,31.65 155.27,36.00
             155.27,36.00 149.81,49.00 149.81,49.00
             148.28,52.94 146.81,58.81 142.90,60.98
             138.35,63.49 133.41,61.42 133.20,56.00
             132.97,50.23 136.93,42.94 138.00,37.00
             125.39,37.00 113.10,36.80 102.00,44.11
             98.57,46.37 93.60,50.77 92.84,55.00
             91.80,60.76 99.33,67.34 103.00,71.00
             112.98,80.95 128.03,90.89 126.82,107.00
             124.64,135.87 90.12,153.21 64.00,152.26
             50.89,151.78 49.99,150.79 38.00,146.00 Z
           M 632.00,58.00
           C 626.92,58.72 615.21,62.03 617.33,52.00
             618.50,46.52 624.39,45.17 629.00,43.86
             636.41,41.75 649.65,37.62 657.00,38.04
             668.86,38.72 665.34,48.80 659.95,55.00
             659.95,55.00 650.99,65.00 650.99,65.00
             650.99,65.00 637.00,80.00 637.00,80.00
             641.32,79.43 644.55,78.70 649.00,79.17
             651.39,79.42 654.81,80.23 657.00,81.21
             665.99,85.24 667.69,96.29 665.21,105.00
             664.05,109.10 656.42,123.75 654.00,128.00
             658.64,128.00 668.18,127.26 671.85,129.85
             675.19,132.21 676.25,138.29 672.57,140.83
             670.65,142.14 667.26,141.99 665.00,142.00
             654.85,142.05 644.70,143.25 635.00,146.34
             630.33,147.84 621.93,151.45 617.23,149.26
             613.62,147.59 614.03,143.34 614.00,140.00
             604.75,140.00 598.95,140.61 590.00,143.34
             586.39,144.45 578.50,147.45 575.04,146.22
             571.37,144.92 569.57,138.68 569.57,138.68
             569.57,138.68 569.31,137.89 569.18,137.49
             569.18,137.49 562.60,150.00 562.60,150.00
             561.46,152.78 559.93,157.53 557.61,159.40
             554.47,161.94 549.68,160.98 548.43,156.89
             547.01,152.24 548.92,147.08 551.00,143.00
             547.38,142.67 545.33,142.26 542.00,140.67
             527.18,133.62 529.00,115.56 534.89,103.00
             537.89,96.60 542.27,90.96 546.00,85.00
             539.51,86.82 535.56,86.15 534.00,79.00
             531.40,79.77 528.26,80.12 526.02,81.60
             520.76,85.05 515.17,97.15 512.25,103.00
             512.25,103.00 500.25,127.00 500.25,127.00
             491.94,143.61 485.08,160.00 464.00,161.68
             455.10,162.38 446.91,158.40 439.00,155.00
             438.33,158.70 436.26,165.77 433.36,168.26
             429.94,171.21 423.48,169.70 423.37,163.00
             423.32,160.30 425.40,154.61 426.45,152.00
             428.79,146.21 436.56,128.94 441.18,125.74
             445.68,122.63 450.76,125.43 450.79,131.00
             450.81,134.86 446.96,140.59 445.00,144.00
             449.23,145.19 453.56,147.72 458.00,147.36
             469.67,146.42 477.23,131.67 483.00,123.00
             477.43,125.36 471.21,128.34 465.00,127.81
             452.45,126.76 447.69,115.19 449.30,104.00
             450.81,93.46 458.57,83.88 467.00,77.78
             475.81,71.41 484.25,68.88 495.00,69.00
             495.00,69.00 508.00,70.60 508.00,70.60
             509.74,70.44 525.43,64.69 538.00,66.11
             545.01,66.90 543.45,71.54 549.02,71.41
             554.17,71.30 557.60,67.31 561.00,64.01
             565.19,59.96 575.72,50.62 581.00,48.82
             585.72,47.21 590.23,49.68 589.72,55.00
             589.39,58.34 587.26,60.29 584.96,62.42
             584.96,62.42 578.00,69.00 578.00,69.00
             584.36,69.02 601.87,68.56 599.53,78.96
             597.85,86.40 580.97,83.99 575.00,84.00
             572.56,84.00 569.34,83.79 567.18,85.02
             562.30,87.80 553.66,105.32 551.40,111.00
             549.87,114.85 547.24,120.88 548.75,124.98
             550.19,128.88 553.57,130.29 557.00,132.00
             559.14,126.21 564.76,117.90 570.00,114.60
             575.58,111.09 580.72,114.47 579.76,121.00
             579.12,125.35 574.51,130.25 572.00,134.00
             574.77,132.83 585.98,128.78 587.35,127.44
             589.13,125.72 591.05,120.49 592.26,118.00
             592.26,118.00 601.31,101.00 601.31,101.00
             608.41,88.25 622.20,68.68 632.00,58.00 Z
           M 158.00,86.00
           C 153.93,86.73 146.64,88.68 145.33,82.94
             144.22,78.03 148.01,75.29 152.00,73.71
             157.05,71.71 163.99,70.82 168.00,67.70
             174.32,62.78 183.71,48.92 194.00,43.57
             201.10,39.88 206.05,44.67 204.24,50.00
             203.00,53.66 195.95,60.05 193.00,63.00
             198.63,62.88 212.66,59.53 215.98,65.15
             217.02,66.91 216.93,69.03 217.00,71.00
             226.06,67.10 235.26,62.46 245.00,60.51
             255.34,58.45 257.09,64.38 255.00,73.00
             261.84,69.11 264.94,68.51 271.00,62.97
             273.83,60.38 276.20,57.83 280.00,56.65
             285.83,54.83 292.49,56.79 291.85,64.00
             291.20,71.32 284.35,72.87 281.83,77.09
             279.37,81.21 282.64,84.34 278.69,88.67
             274.89,92.83 265.79,95.98 261.60,90.72
             259.83,88.51 260.03,85.66 260.00,83.00
             246.12,91.07 237.82,100.28 230.00,113.80
             234.34,113.80 244.17,112.02 247.82,113.80
             252.45,115.55 252.07,121.90 247.82,124.55
             244.78,126.40 231.87,127.86 227.00,129.15
             216.40,131.98 207.94,136.71 198.00,140.85
             193.24,142.83 184.51,144.72 186.33,136.00
             188.03,127.91 200.50,126.32 205.61,120.79
             208.23,117.96 212.18,108.94 214.31,105.00
             214.31,105.00 228.00,81.00 228.00,81.00
             222.88,82.45 211.39,89.14 210.82,78.98
             210.82,78.98 210.82,75.00 210.82,75.00
             204.52,76.58 186.94,77.45 182.09,80.74
             178.97,82.86 176.33,87.73 174.42,91.00
             170.25,98.19 162.31,112.11 160.80,120.00
             159.80,125.26 163.55,129.66 167.96,128.34
             170.76,127.51 172.79,124.24 174.42,122.00
             177.49,117.81 182.45,110.45 187.00,108.17
             191.88,105.73 197.81,107.64 196.53,114.00
             195.77,117.77 189.66,124.64 187.13,128.00
             182.94,133.57 179.04,139.83 175.78,146.00
             173.97,149.43 171.63,155.14 168.79,157.57
             164.60,161.16 158.43,160.33 157.73,154.98
             157.25,151.31 160.24,146.10 162.00,143.00
             158.16,142.97 155.80,142.90 151.91,141.96
             128.80,136.20 144.19,107.27 151.91,95.00
             151.91,95.00 158.00,86.00 158.00,86.00 Z
           M 321.00,118.00
           C 314.65,119.43 306.46,122.45 300.00,121.82
             284.76,120.34 280.56,107.03 284.44,94.00
             289.44,77.22 304.01,64.01 320.00,57.81
             328.87,54.37 340.32,51.83 348.96,57.22
             358.38,63.11 357.98,80.26 350.00,85.00
             352.12,88.27 353.33,90.06 351.71,94.00
             350.46,97.04 345.55,102.75 343.36,106.00
             343.36,106.00 333.58,123.00 333.58,123.00
             331.76,126.22 329.11,132.11 325.90,133.82
             321.78,136.02 317.58,133.64 317.24,129.00
             316.96,125.32 319.28,121.11 321.00,118.00 Z
           M 384.00,71.00
           C 380.76,72.05 375.38,73.94 372.04,72.94
             367.93,71.71 365.95,66.89 368.74,63.42
             370.57,61.13 375.24,59.91 378.00,59.00
             383.52,57.18 385.34,56.74 391.00,55.60
             398.42,54.11 406.36,51.96 408.00,62.00
             414.15,60.35 416.17,58.69 423.00,59.04
             425.73,59.18 427.54,59.59 430.00,60.84
             447.95,69.93 434.04,93.39 429.00,106.00
             432.40,106.00 440.05,105.51 442.77,107.17
             446.14,109.23 447.27,115.59 443.69,117.98
             441.50,119.44 434.15,118.91 431.00,119.28
             421.17,120.45 416.29,121.63 407.00,125.19
             403.88,126.39 398.22,129.29 395.06,128.21
             390.85,126.77 391.05,122.64 391.00,119.00
             373.67,119.00 375.44,119.15 359.00,123.86
             355.31,124.91 349.66,127.20 346.31,124.40
             342.82,121.47 344.17,116.54 347.34,113.97
             351.71,110.43 360.18,109.63 363.73,106.49
             366.16,104.35 369.55,96.30 371.26,93.00
             371.26,93.00 384.00,71.00 384.00,71.00 Z
           M 338.00,73.00
           C 337.94,71.35 338.08,68.97 336.98,67.60
             335.34,65.58 332.11,66.41 330.00,67.05
             324.64,68.69 319.45,72.33 316.01,76.70
             316.01,76.70 338.00,73.00 338.00,73.00 Z
           M 387.00,105.00
           C 389.98,105.39 397.69,106.07 399.91,107.16
             402.33,108.34 403.96,111.84 406.41,110.69
             408.33,109.78 410.29,104.90 411.14,103.00
             411.14,103.00 419.36,84.00 419.36,84.00
             420.18,81.38 421.82,77.02 419.36,74.78
             416.35,71.96 409.82,75.27 407.00,77.11
             398.39,82.73 388.93,94.73 387.00,105.00 Z
           M 316.96,76.07 316.96,76.07 316.96,76.07 316.96,76.07
           M 228.00,80.00 228.00,80.00 228.00,80.00 228.00,80.00
           M 503.00,82.00
           C 488.25,82.00 479.48,82.75 470.93,97.00
             469.00,100.21 465.17,108.01 468.60,111.25
             471.78,114.25 478.07,110.82 481.00,108.89
             489.04,103.61 499.27,90.93 503.00,82.00 Z
           M 342.00,86.00
           C 333.41,86.03 327.29,87.51 319.00,88.92
             316.56,89.33 308.99,90.56 307.14,91.51
             303.97,93.13 302.66,97.62 303.47,100.96
             304.83,106.56 311.45,106.36 316.00,105.70
             327.00,104.12 329.22,102.22 335.67,94.00
             335.67,94.00 342.00,86.00 342.00,86.00 Z
           M 629.00,133.00
           C 633.85,128.73 641.42,112.50 644.26,106.00
             645.19,103.44 647.11,98.17 644.26,96.02
             641.30,93.55 634.02,96.25 631.00,97.90
             619.75,104.05 613.70,113.45 609.00,125.00
             618.24,125.75 622.88,125.13 629.00,133.00 Z
           M 572.00,134.00 572.00,134.00 572.00,134.00 572.00,134.00
           M 316.98,77.71M 571.33,134.62M 573.00,135.76M 569.76,136.44" />
</svg>
