<?xml version="1.0" encoding="UTF-8" standalone="no"?>
<!DOCTYPE svg PUBLIC "-//W3C//DTD SVG 20010904//EN"
              "http://www.w3.org/TR/2001/REC-SVG-20010904/DTD/svg10.dtd">

<svg xmlns="http://www.w3.org/2000/svg"
     width="2.34333in" height="0.83in"
     viewBox="0 0 703 249">
  <path id="Selection #3"
        fill="white" stroke="black" stroke-width="6"
        d="M 614.00,118.00
           C 621.74,119.00 627.38,119.02 632.57,111.98
             633.92,110.14 634.79,108.32 634.16,106.00
             632.91,101.43 626.57,97.93 623.00,95.24
             617.53,91.12 614.44,86.89 613.50,80.00
             611.87,68.09 621.61,53.94 633.00,50.52
             642.08,47.78 644.66,50.67 647.34,49.57
             650.69,48.19 655.54,38.10 660.79,41.08
             663.98,43.10 662.32,48.24 660.79,51.00
             660.79,51.00 652.45,67.00 652.45,67.00
             650.08,72.85 649.61,80.83 643.00,83.00
             646.90,90.37 649.79,94.30 649.99,103.00
             650.54,127.12 631.43,140.40 609.00,133.00
             608.74,136.23 607.70,147.54 606.74,149.95
             605.78,152.34 603.97,154.51 601.09,153.92
             598.01,153.29 596.64,149.74 596.21,147.00
             595.27,141.02 597.12,132.92 598.42,127.00
             600.11,119.35 605.75,100.80 610.63,95.23
             613.55,91.90 617.88,91.03 619.43,96.06
             620.49,99.48 619.58,102.78 618.38,106.00
             618.38,106.00 614.00,118.00 614.00,118.00 Z
           M 162.00,59.00
           C 162.20,54.64 163.20,44.65 169.99,46.66
             175.02,48.14 175.98,53.53 175.99,58.00
             175.99,58.00 172.94,82.00 172.94,82.00
             172.94,82.00 172.94,93.00 172.94,93.00
             172.14,97.86 172.20,105.21 165.01,103.67
             162.43,103.11 160.70,101.40 159.87,98.98
             158.20,95.12 158.81,79.17 159.87,75.00
             159.87,75.00 159.00,74.00 159.00,74.00
             159.00,74.00 142.42,77.85 142.42,77.85
             142.42,77.85 132.42,100.00 132.42,100.00
             132.42,100.00 108.00,160.00 108.00,160.00
             108.00,160.00 119.00,160.00 119.00,160.00
             121.89,160.00 126.25,159.81 128.81,161.31
             132.51,163.53 132.67,168.56 128.81,170.83
             126.31,172.34 121.93,171.94 119.00,172.01
             119.00,172.01 105.00,173.09 105.00,173.09
             105.00,173.09 68.00,179.56 68.00,179.56
             63.71,180.18 55.23,179.34 56.37,173.03
             57.90,164.55 76.06,167.98 80.78,160.86
             80.78,160.86 91.78,136.00 91.78,136.00
             91.78,136.00 105.30,106.00 105.30,106.00
             108.23,99.52 113.46,88.55 115.00,82.00
             109.97,83.27 95.80,84.56 92.64,87.56
             87.26,92.66 87.69,109.88 77.02,107.53
             70.93,106.19 71.50,98.65 72.78,94.00
             72.78,94.00 83.75,68.00 83.75,68.00
             85.28,64.93 88.18,58.61 90.53,56.43
             94.68,52.59 100.07,55.43 102.00,60.04
             103.29,63.16 102.56,65.84 102.00,69.00
             102.00,69.00 132.00,63.58 132.00,63.58
             132.00,63.58 162.00,59.00 162.00,59.00 Z
           M 561.00,135.00
           C 568.08,135.36 573.78,134.80 577.77,127.98
             578.82,126.19 579.60,124.10 579.08,122.00
             577.60,116.15 568.72,113.96 564.68,106.00
             557.81,92.44 567.35,72.97 580.00,66.40
             586.76,62.89 590.70,64.71 593.82,63.40
             597.75,61.75 603.33,48.70 608.40,52.08
             611.67,54.26 607.89,61.57 606.56,64.00
             603.36,69.86 599.99,75.71 597.69,82.00
             595.26,88.69 594.85,95.56 588.00,99.00
             604.13,121.59 584.54,159.42 556.00,149.00
             555.01,153.01 554.35,164.99 551.49,167.21
             548.12,169.82 545.77,165.80 544.94,163.00
             543.61,158.46 545.22,150.68 546.21,146.00
             548.13,136.90 551.17,127.36 555.26,119.00
             556.64,116.18 558.94,111.35 562.02,110.17
             566.03,108.63 567.00,113.07 566.89,116.00
             566.66,121.85 562.36,127.48 561.00,135.00 Z
           M 400.00,80.00
           C 395.77,81.41 388.37,84.91 387.24,77.95
             386.80,75.25 387.55,72.40 389.43,70.39
             392.31,67.32 409.32,60.82 414.00,59.52
             417.07,58.53 422.70,56.98 425.26,59.52
             428.78,63.19 426.03,69.56 423.79,73.00
             423.79,73.00 404.00,102.00 404.00,102.00
             406.59,101.15 409.25,100.33 412.00,100.26
             425.92,99.88 427.59,113.35 425.33,124.00
             425.33,124.00 420.00,140.00 420.00,140.00
             420.00,140.00 417.00,149.00 417.00,149.00
             424.76,148.83 430.78,145.57 432.00,156.00
             441.48,151.66 440.74,147.07 444.19,138.00
             444.19,138.00 455.00,112.00 455.00,112.00
             453.02,112.83 449.21,114.71 447.13,114.48
             442.15,113.91 443.12,107.05 445.01,104.04
             447.71,99.72 460.03,93.35 465.00,91.25
             467.23,90.62 471.28,89.39 473.40,91.25
             475.26,92.46 474.97,95.89 475.00,98.00
             480.92,92.43 491.94,85.88 495.43,98.00
             496.05,100.15 496.04,103.72 495.99,106.00
             495.80,114.21 490.00,133.97 487.00,142.00
             492.06,141.29 498.60,138.58 499.76,146.02
             500.24,149.13 499.34,152.21 496.77,154.16
             494.71,155.73 487.98,157.57 485.00,158.87
             479.92,161.10 475.43,164.45 471.00,167.74
             468.78,169.39 465.10,173.01 462.15,172.26
             458.49,171.33 459.01,165.86 459.00,163.00
             451.69,163.99 447.72,165.23 441.00,168.31
             438.19,169.59 431.70,173.29 429.02,173.39
             422.96,173.60 423.08,167.15 424.00,163.00
             416.10,163.36 410.21,165.35 403.00,168.43
             399.92,169.74 393.93,172.99 391.00,173.42
             384.62,174.34 383.76,168.81 385.00,164.00
             370.56,164.67 362.03,171.34 355.00,172.62
             350.29,173.48 346.32,171.37 347.47,166.00
             349.18,158.06 359.67,158.62 363.21,151.90
             363.21,151.90 371.86,131.00 371.86,131.00
             378.48,116.02 390.19,92.71 400.00,80.00 Z
           M 642.00,63.00
           C 633.13,60.51 627.38,65.72 628.84,70.99
             629.94,74.92 634.63,77.34 638.00,79.00
             638.00,79.00 642.00,63.00 642.00,63.00 Z
           M 527.00,152.00
           C 523.71,153.95 519.90,156.48 516.00,156.77
             504.65,157.63 501.67,143.67 502.04,135.00
             502.79,117.07 512.44,99.76 524.72,87.17
             529.20,82.56 542.93,70.67 549.35,77.43
             553.87,82.18 551.81,94.22 550.37,100.00
             550.37,100.00 547.22,110.42 547.22,110.42
             547.05,113.21 548.55,114.27 547.22,120.00
             547.22,120.00 542.69,132.00 542.69,132.00
             540.56,138.00 539.33,142.80 538.00,149.00
             538.00,149.00 534.66,165.94 534.66,165.94
             533.78,168.31 531.99,170.34 529.21,169.34
             523.99,167.48 526.81,156.23 527.00,152.00 Z
           M 589.00,78.00
           C 580.82,76.08 575.18,82.53 576.83,87.99
             577.98,91.78 581.61,93.67 585.00,95.00
             585.00,95.00 589.00,78.00 589.00,78.00 Z
           M 540.00,90.00
           C 532.61,91.57 527.63,98.22 525.00,105.00
             536.05,99.58 539.74,99.98 540.00,90.00 Z
           M 320.00,162.00
           C 310.24,168.35 296.39,174.88 291.44,159.00
             290.77,156.83 290.23,154.27 290.09,152.00
             288.72,129.60 311.01,103.39 334.00,104.02
             334.00,104.02 341.42,104.56 341.42,104.56
             341.42,104.56 349.00,100.76 349.00,100.76
             352.82,99.17 358.90,97.59 363.00,96.65
             366.84,95.77 372.30,94.00 374.82,98.23
             375.67,99.65 375.85,101.38 375.57,102.99
             374.20,110.87 365.30,109.16 360.04,112.72
             355.90,115.52 354.28,119.70 352.22,124.00
             352.22,124.00 327.31,181.00 327.31,181.00
             320.14,192.26 311.98,199.66 298.00,199.99
             290.93,200.15 288.54,199.51 282.00,197.00
             281.07,200.94 279.19,206.92 275.79,209.40
             272.11,212.07 266.76,210.46 269.36,202.00
             271.05,196.52 280.07,174.70 283.39,171.15
             286.73,167.57 291.12,167.50 291.84,173.02
             292.45,177.68 289.28,182.50 288.00,187.22
             291.63,187.48 295.37,188.41 299.00,187.22
             308.54,184.86 315.97,170.38 320.00,162.00 Z
           M 232.00,123.00
           C 229.84,123.79 227.44,124.91 225.11,124.16
             220.64,122.71 220.24,116.48 222.60,113.10
             225.72,108.63 243.22,99.68 248.98,100.74
             254.92,101.84 254.95,107.21 255.00,112.00
             258.49,109.45 262.13,107.20 266.00,105.27
             266.00,105.27 274.00,101.87 274.00,101.87
             280.86,99.49 286.86,100.68 287.80,109.00
             288.31,113.53 285.83,119.75 284.19,124.00
             284.19,124.00 273.00,152.00 273.00,152.00
             275.20,151.51 278.83,150.32 280.94,150.92
             285.09,152.10 285.78,157.48 283.83,160.79
             282.43,163.16 267.36,170.61 264.00,172.18
             261.95,173.13 259.48,174.11 257.23,173.22
             254.23,172.03 253.86,167.77 253.00,165.00
             247.16,177.08 229.66,179.16 224.61,165.00
             220.07,152.29 227.00,134.79 232.00,123.00 Z
           M 203.00,104.63
           C 216.74,102.30 221.12,117.10 219.57,128.00
             216.90,146.76 201.91,175.17 180.00,173.96
             165.01,173.12 162.49,155.66 165.24,144.00
             168.05,132.04 179.55,111.48 191.00,106.42
             195.56,104.40 196.05,106.43 203.00,104.63 Z
           M 468.00,153.00
           C 472.01,150.49 472.22,147.33 473.67,143.00
             473.67,143.00 480.71,121.00 480.71,121.00
             481.41,118.55 483.97,111.89 481.39,110.08
             477.76,107.53 472.16,114.65 470.29,117.00
             463.93,124.96 456.92,138.77 456.00,149.00
             462.01,148.21 464.80,146.79 468.00,153.00 Z
           M 540.00,112.00 540.00,112.00 540.00,112.00 540.00,112.00
           M 540.97,112.02
           C 536.44,112.86 519.53,120.24 516.95,123.63
             514.99,126.22 513.88,135.45 517.51,137.97
             520.36,139.95 524.48,137.87 527.00,136.29
             533.95,131.91 538.78,119.76 540.97,112.02 Z
           M 337.00,117.00
           C 322.88,117.31 313.99,125.24 308.62,138.00
             307.32,141.07 304.16,149.41 307.60,151.96
             311.18,154.63 317.29,149.38 319.56,146.91
             325.98,139.93 335.24,126.36 337.00,117.00 Z
           M 398.00,156.00
           C 398.00,156.00 408.67,129.00 408.67,129.00
             409.52,126.45 411.77,120.99 409.96,118.60
             407.18,114.92 400.45,119.14 398.00,121.21
             390.30,127.73 382.58,139.93 381.00,150.00
             392.55,150.00 390.55,149.05 398.00,156.00 Z
           M 253.00,118.00
           C 245.96,126.85 237.22,147.69 239.00,159.00
             241.67,158.92 243.52,158.97 246.00,157.69
             249.42,155.91 252.45,152.04 254.76,149.00
             260.39,141.58 267.36,129.38 268.81,120.12
             260.59,122.47 258.35,127.12 253.00,118.00 Z
           M 190.00,122.00
           C 190.00,122.00 183.31,136.00 183.31,136.00
             181.20,140.73 180.81,143.86 181.02,149.00
             181.37,157.52 187.70,158.80 193.91,154.20
             200.66,149.20 205.81,138.38 205.98,130.00
             206.04,127.37 206.25,122.76 203.57,121.28
             200.17,119.40 199.04,123.39 190.00,122.00 Z
           M 268.00,120.00 268.00,120.00 268.00,120.00 268.00,120.00" />
</svg>
